<svg id="Layer_1" data-name="Layer 1" xmlns="http://www.w3.org/2000/svg" viewBox="0 0 934 217"><defs><style>.cls-1{fill:#231f20;}</style></defs><title>sam-zahir-wordmark</title><path class="cls-1" d="M43.36,144.38c-2.22-5.13.51-8.71,5.81-10.08l7.35-1.71c4.78-1.19,7.35.85,10.08,5.3,3.93,6.32,11.45,10.59,21.53,10.59,11.62,0,19.3-5.13,19.3-13,0-6-4.61-10.76-13.67-13.84L78.21,116C64,111.4,46.61,100.81,46.43,82.36c0-21.87,19-35.53,42.37-35.53,18.62,0,31.78,8.2,38.27,21.87,2.56,5,.17,8.88-5,10.42L115.28,81c-4.78,1.37-7.69-.51-10.59-4.61-3.07-5.13-8.37-7.86-15.55-7.86-8.54,0-15.89,4.27-15.89,12.13,0,4.27,1.88,8.88,12.47,12.81l15.55,5.64c23.41,7.86,32.12,20.16,32.46,35.19,0,23.4-20,35.87-45.44,35.87C65.91,170.17,49.68,160.26,43.36,144.38Z"/><path class="cls-1" d="M308,127.57l-9.52,23.1a2,2,0,0,1-3.78,0l-11.41-28.17-11-27.31-5.62,65.29c-.36,5.09-3.42,7.84-8.56,7.84H223.84c-4.62,0-7.84-2.06-9.57-6.48l-6-15.74L185.4,76.55l-23.22,69.53-5.81,15.55c-1.72,4.45-4.78,6.67-9.4,6.67H136.2c-6.15,0-8.54-3.76-6.48-9.42l40-103.68c1.53-4.28,4.78-6.51,9.57-6.51h12.13c4.78,0,7.87,2.22,9.57,6.51L240.17,155.6l9.18-99c.33-5.12,3.42-7.87,8.54-7.87h12.32c4.78,0,7.68,2.06,9.57,6.51l20.86,51L308,123.93A4.78,4.78,0,0,1,308,127.57Z"/><path class="cls-1" d="M372.87,168.3H362.45c-5.3,0-8.2-2.75-8.71-7.86l-5.47-65.28L322,160.44c-1.71,4.44-4.78,6.49-9.4,6.49H308c-4.61,0-7.69-2.05-9.4-6.49h0c-.52-2.16.11-3,.68-4.37l10.94-26.57,7.77-18.88,22.81-55.44c1.71-4.44,4.78-6.49,9.4-6.49h12.47c5.12,0,8,2.73,8.54,7.86l9.57,103C381.24,165.21,378.34,168.3,372.87,168.3Z"/><path class="cls-1" d="M195.77,146.07h-21a7.39,7.39,0,0,1-7-9.73l2.2-6.58a7.37,7.37,0,0,1,7-5h16.71a7.37,7.37,0,0,1,7,5.06l2.17,6.58A7.39,7.39,0,0,1,195.77,146.07Z"/><path class="cls-1" d="M509.73,51.55,496,68.62a5.53,5.53,0,0,1-4.3,2.06H443.24a8.2,8.2,0,0,1-8.2-8.2V56a8.2,8.2,0,0,1,8.2-8.2h64.69A2.31,2.31,0,0,1,509.73,51.55Z"/><path class="cls-1" d="M734.32,56.9V160.1c0,5.27-2.9,8.2-8.22,8.2H715.53c-5.3,0-8.2-2.93-8.2-8.2V56.9c0-5.3,2.9-8.2,8.2-8.2H726.1C731.42,48.7,734.32,51.6,734.32,56.9Z"/><path class="cls-1" d="M654.35,48.69h-10.6c-5.29,0-8.37,2.92-8.37,8.2V160.1a5.82,5.82,0,0,0,0,.65,16.1,16.1,0,0,0-.55-1.87L594.36,55.19c-1.72-4.28-4.78-6.51-9.57-6.51H572.67c-4.78,0-8,2.22-9.57,6.51l-34.8,90.22H468.85l61-74.67a15.19,15.19,0,0,0,3.76-10.24V56.92a8.2,8.2,0,0,0-8.2-8.2H516.9a2.61,2.61,0,0,0-2,1L497.19,71.6l-4.5,5.57-56.13,69.43A14.34,14.34,0,0,0,433,156.68v3.42a8.2,8.2,0,0,0,8.2,8.2h99.21c4.62,0,7.68-2.22,9.38-6.67l5.81-15.55,23.25-69.53,22.89,69.53,6,15.74c1.7,4.42,5,6.48,9.57,6.48h37.1c5.29,0,8.2-2.92,8.2-8.2V56.89C662.55,51.61,659.63,48.69,654.35,48.69ZM635.57,162.51a2.61,2.61,0,0,0,0-.43,2.76,2.76,0,0,0,.1.43Z"/><path class="cls-1" d="M747.57,160.09V56.91c0-5.3,3.07-8.2,8.37-8.2h10.59c5.3,0,8.2,2.9,8.2,8.2V160.09c0,5.29-2.9,8.2-8.2,8.2H755.94C750.64,168.29,747.57,165.39,747.57,160.09Z"/><path class="cls-1" d="M887.56,165.25a44.5,44.5,0,0,1-20.5,4.78c-29.55,0-36.73-31.09-38.1-44.57h-8.69a4.9,4.9,0,0,1-4.9-4.9v-9.7a4.9,4.9,0,0,1,4.9-4.9h16.2c9.74,0,15.89-7.52,15.89-17.08,0-9.91-6.32-17.43-15.89-17.43h-23.4v90.07a6.65,6.65,0,0,1-6.65,6.65h-13.7a6.82,6.82,0,0,1-6.82-6.82V55.21a6.65,6.65,0,0,1,6.65-6.65h47.68c25.45,0,39.63,18.11,39.63,39.8,0,17.6-9.74,31.43-26.48,35.7,1.37,12.15,8.2,24.26,18.11,24.26,3.59,0,5.64-.34,7.86-1.35,5-1.73,7-.7,9.22,3.93l1.54,3.4C892.35,158.92,891.83,162.85,887.56,165.25Z"/><path class="cls-1" d="M589.18,145.14h-21a7.39,7.39,0,0,1-7-9.73l2.2-6.58a7.37,7.37,0,0,1,7-5H587a7.37,7.37,0,0,1,7,5.06l2.17,6.58A7.39,7.39,0,0,1,589.18,145.14Z"/><path class="cls-1" d="M705,104.93v10.35a5.83,5.83,0,0,1-5.82,5.84H670.86a5.83,5.83,0,0,1-5.82-5.84V104.93a5.83,5.83,0,0,1,5.82-5.84h28.34A5.83,5.83,0,0,1,705,104.93Z"/><line class="cls-1" x1="600.28" y1="47.77" x2="600.26" y2="47.79"/></svg>